Coordinates
version=1
nRows=54
nColumns=12
inDegrees=yes

Units are S.I. units (second, meters, Newtons, ...)
Angles are in degrees

endheader
time	SC_y	SC_z	SC_x	AC_y	AC_z	AC_x	GH_y	GH_z	GH_yy	EL_x	PS_y
       0.0              -14.62          4.593          52.75          51.07          9.443         -16.03          31.64          17.39         -167.0          78.08          131.2
   0.04456              -14.62          4.597          52.75          51.07           9.44         -16.02          31.62          17.39         -167.0          78.07          131.2
   0.08912              -14.62          4.601          52.75          51.07          9.437         -16.02           31.6          17.39         -166.9          78.07          131.2
    0.1337              -14.62          4.605          52.75          51.07          9.434         -16.01          31.57          17.39         -166.9          78.06          131.2
    0.1782              -14.62          4.609          52.74          51.06           9.43          -16.0          31.54          17.39         -166.9          78.05          131.2
    0.2228              -14.62          4.613          52.74          51.06          9.426          -16.0          31.52          17.39         -166.8          78.04          131.2
    0.2674              -14.62          4.618          52.74          51.06          9.422         -15.99          31.49          17.39         -166.8          78.03          131.2
    0.3119              -14.62          4.623          52.73          51.06          9.417         -15.98          31.46           17.4         -166.8          78.02          131.2
    0.3565              -14.62          4.629          52.73          51.05          9.413         -15.98          31.42           17.4         -166.7          78.01          131.2
    0.4011              -14.63          4.634          52.73          51.05          9.408         -15.97          31.38           17.4         -166.7           78.0          131.2
    0.4456              -14.63          4.641          52.72          51.05          9.402         -15.96          31.35           17.4         -166.6          77.99          131.2
    0.4902              -14.63          4.648          52.72          51.05          9.396         -15.95           31.3           17.4         -166.6          77.98          131.1
    0.5347              -14.63          4.655          52.71          51.04           9.39         -15.94          31.26           17.4         -166.5          77.96          131.1
    0.5793              -14.63          4.663          52.71          51.04          9.383         -15.92          31.21           17.4         -166.5          77.95          131.1
    0.6239              -14.63          4.671           52.7          51.03          9.376         -15.91          31.16           17.4         -166.4          77.93          131.1
    0.6684              -14.63          4.681          52.69          51.03          9.368          -15.9           31.1          17.41         -166.3          77.91          131.1
     0.713              -14.63          4.691          52.69          51.02          9.359         -15.88          31.04          17.41         -166.3           77.9          131.1
    0.7575              -14.63          4.702          52.68          51.02           9.35         -15.87          30.97          17.41         -166.2          77.87          131.0
    0.8021              -14.64          4.714          52.67          51.01          9.339         -15.85          30.89          17.41         -166.1          77.85          131.0
    0.8467              -14.64          4.727          52.66          51.01          9.328         -15.83          30.81          17.42         -166.0          77.83          131.0
    0.8912              -14.64          4.741          52.65           51.0          9.315         -15.81          30.72          17.42         -165.9           77.8          131.0
    0.9358              -14.64          4.757          52.64          50.99          9.302         -15.79          30.62          17.42         -165.8          77.77          130.9
    0.9804              -14.65          4.775          52.63          50.98          9.287         -15.76          30.51          17.43         -165.6          77.74          130.9
     1.025              -14.65          4.794          52.62          50.98           9.27         -15.73          30.39          17.43         -165.5           77.7          130.9
     1.069              -14.65          4.816           52.6          50.96          9.251          -15.7          30.26          17.43         -165.3          77.66          130.8
     1.114              -14.65           4.84          52.58          50.95           9.23         -15.66          30.11          17.44         -165.1          77.61          130.8
     1.159              -14.66          4.867          52.57          50.94          9.207         -15.62          29.94          17.44         -164.9          77.56          130.7
     1.203              -14.66          4.897          52.54          50.93          9.181         -15.58          29.75          17.45         -164.7           77.5          130.7
     1.248              -14.67          4.932          52.52          50.91          9.151         -15.53          29.54          17.46         -164.5          77.44          130.6
     1.292              -14.67          4.971          52.49          50.89          9.117         -15.47           29.3          17.47         -164.2          77.37          130.5
     1.337              -14.68          5.015          52.46          50.87          9.079          -15.4          29.02          17.47         -163.8          77.28          130.4
     1.381              -14.69          5.066          52.43          50.84          9.035         -15.33           28.7          17.48         -163.5          77.19          130.3
     1.426              -14.69          5.125          52.39          50.82          8.984         -15.24          28.33           17.5         -163.0          77.07          130.2
     1.471               -14.7          5.194          52.34          50.78          8.925         -15.14          27.91          17.51         -162.5          76.94          130.1
     1.515              -14.71          5.274          52.28          50.75          8.856         -15.02          27.41          17.53         -161.9          76.79          129.9
      1.56              -14.73          5.368          52.22           50.7          8.774         -14.88          26.82          17.54         -161.2          76.61          129.8
     1.604              -14.74          5.481          52.14          50.65          8.677         -14.72          26.13          17.57         -160.4           76.4          129.6
     1.649              -14.76          5.615          52.05          50.58          8.561         -14.52          25.29          17.59         -159.3          76.15          129.3
     1.693              -14.78          5.778          51.93           50.5           8.42         -14.28          24.28          17.63         -158.1          75.84          129.0
     1.738              -14.81          5.977           51.8          50.41          8.248         -13.98          23.04          17.67         -156.6          75.46          128.6
     1.782              -14.85          6.222          51.63          50.29          8.036         -13.62          21.51          17.72         -154.8           75.0          128.1
     1.827              -14.89          6.529          51.42          50.14          7.772         -13.17          19.61          17.78         -152.5          74.42          127.6
     1.872              -14.94          6.914          51.15          49.96          7.439          -12.6          17.21          17.86         -149.6          73.69          126.8
     1.916              -15.01          7.405          50.81          49.72          7.015         -11.88          14.17          17.95         -145.9          72.76          125.9
     1.961               -15.1          8.032          50.38          49.42          6.474         -10.95          10.26          18.08         -141.3          71.58          124.7
     2.005              -15.21          8.837          49.82          49.04          5.778         -9.761          5.259          18.24         -135.2          70.05          123.2
      2.05              -15.35          9.866          49.11          48.55           4.89         -8.242         -1.135          18.45         -127.5          68.11          121.2
     2.094              -15.53          11.16          48.21          47.93          3.773         -6.333         -9.175          18.71         -117.8          65.66          118.8
     2.139              -15.75          12.74          47.12          47.17          2.412         -4.005         -18.97          19.02         -106.0          62.68          115.8
     2.184              -16.01          14.56          45.86           46.3         0.8339         -1.308         -30.33          19.39         -92.37          59.23          112.3
     2.228              -16.28          16.54          44.49          45.35        -0.8745          1.613         -42.63          19.79         -77.56          55.49          108.5
     2.273              -16.56          18.52          43.12           44.4         -2.583          4.534         -54.92          20.19         -62.76          51.75          104.8
     2.317              -16.81          20.35          41.85          43.53         -4.161          7.232         -66.28          20.55         -49.08          48.29          101.3
     2.362              -17.03          21.92          40.76          42.77         -5.522          9.559         -76.08          20.87         -37.28          45.31          98.31
